<svg id="Layer_1" data-name="Layer 1" xmlns="http://www.w3.org/2000/svg" xmlns:xlink="http://www.w3.org/1999/xlink" viewBox="0 0 369.47 419.97"><defs><style>.cls-1{font-size:103.15px;font-family:Poppins-Bold, Poppins;font-weight:700;}.cls-2{fill:url(#linear-gradient);}.cls-3{fill:url(#linear-gradient-2);}.cls-4{fill:#c69c6d;}</style><linearGradient id="linear-gradient" x1="474.51" y1="373.95" x2="627.4" y2="373.95" gradientTransform="translate(421.34 -278.21) rotate(45)" gradientUnits="userSpaceOnUse"><stop offset="0" stop-color="#ff8e00"/><stop offset="0.27" stop-color="#fc8d00"/><stop offset="0.44" stop-color="#f48800"/><stop offset="0.58" stop-color="#e58000"/><stop offset="0.71" stop-color="#d07400"/><stop offset="0.83" stop-color="#b56500"/><stop offset="0.93" stop-color="#945300"/><stop offset="1" stop-color="#7d4600"/></linearGradient><linearGradient id="linear-gradient-2" x1="533.92" y1="395.56" x2="603.23" y2="546.96" gradientTransform="translate(467.38 -267.46) rotate(45)" gradientUnits="userSpaceOnUse"><stop offset="0.08" stop-color="#af5e05"/><stop offset="0.16" stop-color="#d27303"/><stop offset="0.24" stop-color="#eb8201"/><stop offset="0.32" stop-color="#fa8b00"/><stop offset="0.38" stop-color="#ff8e00"/></linearGradient></defs><title>logo-sm</title><text class="cls-1" transform="translate(0 357.46)">ACFOC</text><path class="cls-2" d="M484,348H630.5A21.5,21.5,0,0,1,652,369.5v0A21.5,21.5,0,0,1,630.5,391H441a0,0,0,0,1,0,0v0A43,43,0,0,1,484,348Z" transform="translate(-454.74 206.05) rotate(-45)"/><path class="cls-3" d="M451.12,409H661.38a.59.59,0,0,1,.59.59v0A42.41,42.41,0,0,1,619.57,452H451.12a0,0,0,0,1,0,0V409a0,0,0,0,1,0,0Z" transform="translate(-494.9 231.01) rotate(-45)"/><path class="cls-4" d="M463.39,496.79l-13.18,40.5a1.8,1.8,0,0,0,2.4,2.22l37.91-15.71a1.79,1.79,0,0,0,.58-2.93l-24.72-24.79A1.81,1.81,0,0,0,463.39,496.79Z" transform="translate(-353.53 -288.6)"/><path class="cls-4" d="M469.76,489.58l8.61-1.33a1.41,1.41,0,0,1,1.63,1.4V501a1.41,1.41,0,0,0,1.91,1.32l10.85-4.06a1.41,1.41,0,0,1,1.78,1.92L490.39,509a1.42,1.42,0,0,0,1.73,1.94l1.14-.38a1.42,1.42,0,0,1,1.86,1.25l.34,5.51a1.42,1.42,0,0,0,1.07,1.29L498,519h0a1.42,1.42,0,0,1-2,0l-27-27A1.41,1.41,0,0,1,469.76,489.58Z" transform="translate(-353.53 -288.6)"/></svg>